<svg height="1080" id="visual" version="1.1" viewBox="0 0 1920 1080" width="1920"
     xmlns="http://www.w3.org/2000/svg">
  <rect fill="#171a1c" height="1080" width="1920" x="0" y="0"></rect>
  <path d="M0 456L480 734L960 676L1440 775L1920 740L1920 1081L1440 1081L960 1081L480 1081L0 1081Z"
        fill="#79ff8d"></path>
  <path d="M0 358L480 702L960 957L1440 491L1920 555L1920 1081L1440 1081L960 1081L480 1081L0 1081Z"
        fill="#73e983"></path>
  <path d="M0 817L480 499L960 642L1440 627L1920 514L1920 1081L1440 1081L960 1081L480 1081L0 1081Z"
        fill="#6cd47a"></path>
  <path d="M0 436L480 910L960 883L1440 521L1920 775L1920 1081L1440 1081L960 1081L480 1081L0 1081Z"
        fill="#65bf70"></path>
  <path d="M0 991L480 898L960 779L1440 532L1920 688L1920 1081L1440 1081L960 1081L480 1081L0 1081Z"
        fill="#5fab67"></path>
  <path d="M0 988L480 852L960 424L1440 913L1920 943L1920 1081L1440 1081L960 1081L480 1081L0 1081Z"
        fill="#58975e"></path>
  <path d="M0 671L480 608L960 584L1440 925L1920 660L1920 1081L1440 1081L960 1081L480 1081L0 1081Z"
        fill="#508355"></path>
  <path d="M0 747L480 845L960 1000L1440 657L1920 609L1920 1081L1440 1081L960 1081L480 1081L0 1081Z"
        fill="#49704c"></path>
  <path d="M0 683L480 942L960 690L1440 1049L1920 903L1920 1081L1440 1081L960 1081L480 1081L0 1081Z"
        fill="#415d43"></path>
  <path d="M0 930L480 951L960 1056L1440 781L1920 750L1920 1081L1440 1081L960 1081L480 1081L0 1081Z"
        fill="#3a4b3a"></path>
  <path d="M0 913L480 838L960 1041L1440 866L1920 976L1920 1081L1440 1081L960 1081L480 1081L0 1081Z"
        fill="#313a31"></path>
  <path d="M0 959L480 1064L960 1076L1440 931L1920 1057L1920 1081L1440 1081L960 1081L480 1081L0 1081Z"
        fill="#292929"></path>
</svg>
