<svg height="600" id="visual" version="1.1" viewBox="0 0 900 600" width="900"
     xmlns="http://www.w3.org/2000/svg">
  <g transform="translate(529.305577120069 248.7038470211604)">
    <path
      d="M60.1 -69.5C82.9 -52.5 109.9 -38.3 111.4 -20.9C112.9 -3.6 88.9 17 82.4 65.8C75.9 114.6 86.9 191.7 65.6 214.1C44.3 236.5 -9.1 204.2 -68.7 184.4C-128.3 164.6 -194.1 157.3 -232.5 120C-271 82.8 -282.3 15.5 -255.2 -28.9C-228.2 -73.3 -163 -94.9 -114 -107.3C-65.1 -119.6 -32.6 -122.8 -7 -114.5C18.6 -106.2 37.3 -86.4 60.1 -69.5"
      fill="#79FF8D"></path>
  </g>
</svg>
