<svg height="600" id="visual" version="1.1" viewBox="0 0 900 600" width="900"
     xmlns="http://www.w3.org/2000/svg">
  <g transform="translate(436.775413715059 267.8398918415864)">
    <path
      d="M151.4 -167.5C194.4 -144.4 226.2 -94.9 222.6 -49C219.1 -3.2 180.1 39.2 154.2 93.7C128.3 148.3 115.5 215.1 78.1 239.4C40.8 263.7 -21 245.6 -80.7 223.2C-140.3 200.8 -197.9 174.1 -196.4 134.1C-194.9 94 -134.4 40.5 -117.2 -14.4C-100 -69.2 -126.2 -125.4 -113.9 -153.9C-101.6 -182.4 -50.8 -183.2 1.7 -185.2C54.2 -187.3 108.4 -190.5 151.4 -167.5"
      fill="#79FF8D"></path>
  </g>
</svg>
