<svg id="visual" viewBox="0 0 960 540" width="960" height="540" xmlns="http://www.w3.org/2000/svg" xmlns:xlink="http://www.w3.org/1999/xlink" version="1.1"><path d="M0 434L17.8 445.3C35.7 456.7 71.3 479.3 106.8 490.8C142.3 502.3 177.7 502.7 213.2 486C248.7 469.3 284.3 435.7 320 424.7C355.7 413.7 391.3 425.3 426.8 438.5C462.3 451.7 497.7 466.3 533.2 462.8C568.7 459.3 604.3 437.7 640 425.8C675.7 414 711.3 412 746.8 422.3C782.3 432.7 817.7 455.3 853.2 453.5C888.7 451.7 924.3 425.3 942.2 412.2L960 399L960 0L942.2 0C924.3 0 888.7 0 853.2 0C817.7 0 782.3 0 746.8 0C711.3 0 675.7 0 640 0C604.3 0 568.7 0 533.2 0C497.7 0 462.3 0 426.8 0C391.3 0 355.7 0 320 0C284.3 0 248.7 0 213.2 0C177.7 0 142.3 0 106.8 0C71.3 0 35.7 0 17.8 0L0 0Z" fill="#ffd079"></path><path d="M0 427L17.8 423.5C35.7 420 71.3 413 106.8 400.8C142.3 388.7 177.7 371.3 213.2 367.3C248.7 363.3 284.3 372.7 320 380.5C355.7 388.3 391.3 394.7 426.8 394.8C462.3 395 497.7 389 533.2 386.2C568.7 383.3 604.3 383.7 640 392.2C675.7 400.7 711.3 417.3 746.8 408.5C782.3 399.7 817.7 365.3 853.2 349C888.7 332.7 924.3 334.3 942.2 335.2L960 336L960 0L942.2 0C924.3 0 888.7 0 853.2 0C817.7 0 782.3 0 746.8 0C711.3 0 675.7 0 640 0C604.3 0 568.7 0 533.2 0C497.7 0 462.3 0 426.8 0C391.3 0 355.7 0 320 0C284.3 0 248.7 0 213.2 0C177.7 0 142.3 0 106.8 0C71.3 0 35.7 0 17.8 0L0 0Z" fill="#b2b96a"></path><path d="M0 340L17.8 345.3C35.7 350.7 71.3 361.3 106.8 358.5C142.3 355.7 177.7 339.3 213.2 329C248.7 318.7 284.3 314.3 320 315.8C355.7 317.3 391.3 324.7 426.8 335.3C462.3 346 497.7 360 533.2 359.2C568.7 358.3 604.3 342.7 640 336.2C675.7 329.7 711.3 332.3 746.8 325.3C782.3 318.3 817.7 301.7 853.2 307.7C888.7 313.7 924.3 342.3 942.2 356.7L960 371L960 0L942.2 0C924.3 0 888.7 0 853.2 0C817.7 0 782.3 0 746.8 0C711.3 0 675.7 0 640 0C604.3 0 568.7 0 533.2 0C497.7 0 462.3 0 426.8 0C391.3 0 355.7 0 320 0C284.3 0 248.7 0 213.2 0C177.7 0 142.3 0 106.8 0C71.3 0 35.7 0 17.8 0L0 0Z" fill="#729c68"></path><path d="M0 271L17.8 274.8C35.7 278.7 71.3 286.3 106.8 288.3C142.3 290.3 177.7 286.7 213.2 280.5C248.7 274.3 284.3 265.7 320 266C355.7 266.3 391.3 275.7 426.8 284.8C462.3 294 497.7 303 533.2 302.5C568.7 302 604.3 292 640 283.7C675.7 275.3 711.3 268.7 746.8 256.5C782.3 244.3 817.7 226.7 853.2 222C888.7 217.3 924.3 225.7 942.2 229.8L960 234L960 0L942.2 0C924.3 0 888.7 0 853.2 0C817.7 0 782.3 0 746.8 0C711.3 0 675.7 0 640 0C604.3 0 568.7 0 533.2 0C497.7 0 462.3 0 426.8 0C391.3 0 355.7 0 320 0C284.3 0 248.7 0 213.2 0C177.7 0 142.3 0 106.8 0C71.3 0 35.7 0 17.8 0L0 0Z" fill="#427b64"></path><path d="M0 168L17.8 180.3C35.7 192.7 71.3 217.3 106.8 220.2C142.3 223 177.7 204 213.2 199.3C248.7 194.7 284.3 204.3 320 208.7C355.7 213 391.3 212 426.8 216.3C462.3 220.7 497.7 230.3 533.2 230.2C568.7 230 604.3 220 640 211.7C675.7 203.3 711.3 196.7 746.8 197.8C782.3 199 817.7 208 853.2 214.5C888.7 221 924.3 225 942.2 227L960 229L960 0L942.2 0C924.3 0 888.7 0 853.2 0C817.7 0 782.3 0 746.8 0C711.3 0 675.7 0 640 0C604.3 0 568.7 0 533.2 0C497.7 0 462.3 0 426.8 0C391.3 0 355.7 0 320 0C284.3 0 248.7 0 213.2 0C177.7 0 142.3 0 106.8 0C71.3 0 35.7 0 17.8 0L0 0Z" fill="#285956"></path><path d="M0 157L17.8 144.5C35.7 132 71.3 107 106.8 96.5C142.3 86 177.7 90 213.2 103C248.7 116 284.3 138 320 142.3C355.7 146.7 391.3 133.3 426.8 124C462.3 114.7 497.7 109.3 533.2 118C568.7 126.7 604.3 149.3 640 151.3C675.7 153.3 711.3 134.7 746.8 122.8C782.3 111 817.7 106 853.2 110.7C888.7 115.3 924.3 129.7 942.2 136.8L960 144L960 0L942.2 0C924.3 0 888.7 0 853.2 0C817.7 0 782.3 0 746.8 0C711.3 0 675.7 0 640 0C604.3 0 568.7 0 533.2 0C497.7 0 462.3 0 426.8 0C391.3 0 355.7 0 320 0C284.3 0 248.7 0 213.2 0C177.7 0 142.3 0 106.8 0C71.3 0 35.7 0 17.8 0L0 0Z" fill="#20383d"></path><path d="M0 40L17.8 43C35.7 46 71.3 52 106.8 55.3C142.3 58.7 177.7 59.3 213.2 64.7C248.7 70 284.3 80 320 86.2C355.7 92.3 391.3 94.7 426.8 98.5C462.3 102.3 497.7 107.7 533.2 109.5C568.7 111.3 604.3 109.7 640 94.8C675.7 80 711.3 52 746.8 46.7C782.3 41.3 817.7 58.7 853.2 62.2C888.7 65.7 924.3 55.3 942.2 50.2L960 45L960 0L942.2 0C924.3 0 888.7 0 853.2 0C817.7 0 782.3 0 746.8 0C711.3 0 675.7 0 640 0C604.3 0 568.7 0 533.2 0C497.7 0 462.3 0 426.8 0C391.3 0 355.7 0 320 0C284.3 0 248.7 0 213.2 0C177.7 0 142.3 0 106.8 0C71.3 0 35.7 0 17.8 0L0 0Z" fill="#171a1c"></path></svg>