<svg height="540" id="visual" version="1.1" viewBox="0 0 960 540" width="960"
     xmlns="http://www.w3.org/2000/svg">
  <path
    d="M0 443L17.8 438.2C35.7 433.3 71.3 423.7 106.8 432.3C142.3 441 177.7 468 213.2 474.7C248.7 481.3 284.3 467.7 320 462.8C355.7 458 391.3 462 426.8 459.7C462.3 457.3 497.7 448.7 533.2 446.5C568.7 444.3 604.3 448.7 640 443.8C675.7 439 711.3 425 746.8 432.7C782.3 440.3 817.7 469.7 853.2 471.3C888.7 473 924.3 447 942.2 434L960 421L960 0L942.2 0C924.3 0 888.7 0 853.2 0C817.7 0 782.3 0 746.8 0C711.3 0 675.7 0 640 0C604.3 0 568.7 0 533.2 0C497.7 0 462.3 0 426.8 0C391.3 0 355.7 0 320 0C284.3 0 248.7 0 213.2 0C177.7 0 142.3 0 106.8 0C71.3 0 35.7 0 17.8 0L0 0Z"
    fill="#79ff8d"></path>
  <path
    d="M0 405L17.8 404.5C35.7 404 71.3 403 106.8 393.5C142.3 384 177.7 366 213.2 362.7C248.7 359.3 284.3 370.7 320 373.2C355.7 375.7 391.3 369.3 426.8 375.3C462.3 381.3 497.7 399.7 533.2 394C568.7 388.3 604.3 358.7 640 353.2C675.7 347.7 711.3 366.3 746.8 379C782.3 391.7 817.7 398.3 853.2 397.7C888.7 397 924.3 389 942.2 385L960 381L960 0L942.2 0C924.3 0 888.7 0 853.2 0C817.7 0 782.3 0 746.8 0C711.3 0 675.7 0 640 0C604.3 0 568.7 0 533.2 0C497.7 0 462.3 0 426.8 0C391.3 0 355.7 0 320 0C284.3 0 248.7 0 213.2 0C177.7 0 142.3 0 106.8 0C71.3 0 35.7 0 17.8 0L0 0Z"
    fill="#2cd899"></path>
  <path
    d="M0 310L17.8 318.5C35.7 327 71.3 344 106.8 348.3C142.3 352.7 177.7 344.3 213.2 336.7C248.7 329 284.3 322 320 321.3C355.7 320.7 391.3 326.3 426.8 334.8C462.3 343.3 497.7 354.7 533.2 350.3C568.7 346 604.3 326 640 326.3C675.7 326.7 711.3 347.3 746.8 349.7C782.3 352 817.7 336 853.2 335.2C888.7 334.3 924.3 348.7 942.2 355.8L960 363L960 0L942.2 0C924.3 0 888.7 0 853.2 0C817.7 0 782.3 0 746.8 0C711.3 0 675.7 0 640 0C604.3 0 568.7 0 533.2 0C497.7 0 462.3 0 426.8 0C391.3 0 355.7 0 320 0C284.3 0 248.7 0 213.2 0C177.7 0 142.3 0 106.8 0C71.3 0 35.7 0 17.8 0L0 0Z"
    fill="#00b097"></path>
  <path
    d="M0 286L17.8 278.5C35.7 271 71.3 256 106.8 259.2C142.3 262.3 177.7 283.7 213.2 284.3C248.7 285 284.3 265 320 264.8C355.7 264.7 391.3 284.3 426.8 281.8C462.3 279.3 497.7 254.7 533.2 255.5C568.7 256.3 604.3 282.7 640 282.5C675.7 282.3 711.3 255.7 746.8 245.2C782.3 234.7 817.7 240.3 853.2 245.5C888.7 250.7 924.3 255.3 942.2 257.7L960 260L960 0L942.2 0C924.3 0 888.7 0 853.2 0C817.7 0 782.3 0 746.8 0C711.3 0 675.7 0 640 0C604.3 0 568.7 0 533.2 0C497.7 0 462.3 0 426.8 0C391.3 0 355.7 0 320 0C284.3 0 248.7 0 213.2 0C177.7 0 142.3 0 106.8 0C71.3 0 35.7 0 17.8 0L0 0Z"
    fill="#008786"></path>
  <path
    d="M0 192L17.8 197.2C35.7 202.3 71.3 212.7 106.8 218.7C142.3 224.7 177.7 226.3 213.2 227C248.7 227.7 284.3 227.3 320 217C355.7 206.7 391.3 186.3 426.8 186.8C462.3 187.3 497.7 208.7 533.2 217.7C568.7 226.7 604.3 223.3 640 223.7C675.7 224 711.3 228 746.8 225.5C782.3 223 817.7 214 853.2 212C888.7 210 924.3 215 942.2 217.5L960 220L960 0L942.2 0C924.3 0 888.7 0 853.2 0C817.7 0 782.3 0 746.8 0C711.3 0 675.7 0 640 0C604.3 0 568.7 0 533.2 0C497.7 0 462.3 0 426.8 0C391.3 0 355.7 0 320 0C284.3 0 248.7 0 213.2 0C177.7 0 142.3 0 106.8 0C71.3 0 35.7 0 17.8 0L0 0Z"
    fill="#166068"></path>
  <path
    d="M0 97L17.8 107.2C35.7 117.3 71.3 137.7 106.8 143C142.3 148.3 177.7 138.7 213.2 141.7C248.7 144.7 284.3 160.3 320 165C355.7 169.7 391.3 163.3 426.8 152.7C462.3 142 497.7 127 533.2 130.5C568.7 134 604.3 156 640 155.5C675.7 155 711.3 132 746.8 127.8C782.3 123.7 817.7 138.3 853.2 134.3C888.7 130.3 924.3 107.7 942.2 96.3L960 85L960 0L942.2 0C924.3 0 888.7 0 853.2 0C817.7 0 782.3 0 746.8 0C711.3 0 675.7 0 640 0C604.3 0 568.7 0 533.2 0C497.7 0 462.3 0 426.8 0C391.3 0 355.7 0 320 0C284.3 0 248.7 0 213.2 0C177.7 0 142.3 0 106.8 0C71.3 0 35.7 0 17.8 0L0 0Z"
    fill="#1e3b44"></path>
  <path
    d="M0 101L17.8 95.8C35.7 90.7 71.3 80.3 106.8 71.5C142.3 62.7 177.7 55.3 213.2 55.7C248.7 56 284.3 64 320 70C355.7 76 391.3 80 426.8 81C462.3 82 497.7 80 533.2 74.8C568.7 69.7 604.3 61.3 640 53.3C675.7 45.3 711.3 37.7 746.8 42.5C782.3 47.3 817.7 64.7 853.2 68.8C888.7 73 924.3 64 942.2 59.5L960 55L960 0L942.2 0C924.3 0 888.7 0 853.2 0C817.7 0 782.3 0 746.8 0C711.3 0 675.7 0 640 0C604.3 0 568.7 0 533.2 0C497.7 0 462.3 0 426.8 0C391.3 0 355.7 0 320 0C284.3 0 248.7 0 213.2 0C177.7 0 142.3 0 106.8 0C71.3 0 35.7 0 17.8 0L0 0Z"
    fill="#171a1c"></path>
</svg>
