<svg height="540" id="visual" version="1.1" viewBox="0 0 960 540" width="960"
     xmlns="http://www.w3.org/2000/svg">
  <path
    d="M0 296L17.8 299C35.7 302 71.3 308 106.8 310.5C142.3 313 177.7 312 213.2 310.5C248.7 309 284.3 307 320 307.8C355.7 308.7 391.3 312.3 426.8 300.8C462.3 289.3 497.7 262.7 533.2 249.8C568.7 237 604.3 238 640 235C675.7 232 711.3 225 746.8 230C782.3 235 817.7 252 853.2 259.8C888.7 267.7 924.3 266.3 942.2 265.7L960 265L960 0L942.2 0C924.3 0 888.7 0 853.2 0C817.7 0 782.3 0 746.8 0C711.3 0 675.7 0 640 0C604.3 0 568.7 0 533.2 0C497.7 0 462.3 0 426.8 0C391.3 0 355.7 0 320 0C284.3 0 248.7 0 213.2 0C177.7 0 142.3 0 106.8 0C71.3 0 35.7 0 17.8 0L0 0Z"
    fill="#79a8ff"></path>
  <path
    d="M0 242L17.8 238C35.7 234 71.3 226 106.8 223.2C142.3 220.3 177.7 222.7 213.2 226.7C248.7 230.7 284.3 236.3 320 233.8C355.7 231.3 391.3 220.7 426.8 222C462.3 223.3 497.7 236.7 533.2 246C568.7 255.3 604.3 260.7 640 253.3C675.7 246 711.3 226 746.8 229.3C782.3 232.7 817.7 259.3 853.2 261.7C888.7 264 924.3 242 942.2 231L960 220L960 0L942.2 0C924.3 0 888.7 0 853.2 0C817.7 0 782.3 0 746.8 0C711.3 0 675.7 0 640 0C604.3 0 568.7 0 533.2 0C497.7 0 462.3 0 426.8 0C391.3 0 355.7 0 320 0C284.3 0 248.7 0 213.2 0C177.7 0 142.3 0 106.8 0C71.3 0 35.7 0 17.8 0L0 0Z"
    fill="#5f93db"></path>
  <path
    d="M0 170L17.8 175.3C35.7 180.7 71.3 191.3 106.8 196.8C142.3 202.3 177.7 202.7 213.2 201.2C248.7 199.7 284.3 196.3 320 191.3C355.7 186.3 391.3 179.7 426.8 185.3C462.3 191 497.7 209 533.2 215.2C568.7 221.3 604.3 215.7 640 206C675.7 196.3 711.3 182.7 746.8 186.3C782.3 190 817.7 211 853.2 215.5C888.7 220 924.3 208 942.2 202L960 196L960 0L942.2 0C924.3 0 888.7 0 853.2 0C817.7 0 782.3 0 746.8 0C711.3 0 675.7 0 640 0C604.3 0 568.7 0 533.2 0C497.7 0 462.3 0 426.8 0C391.3 0 355.7 0 320 0C284.3 0 248.7 0 213.2 0C177.7 0 142.3 0 106.8 0C71.3 0 35.7 0 17.8 0L0 0Z"
    fill="#4b7eb8"></path>
  <path
    d="M0 171L17.8 177.5C35.7 184 71.3 197 106.8 203.7C142.3 210.3 177.7 210.7 213.2 202.8C248.7 195 284.3 179 320 177.5C355.7 176 391.3 189 426.8 195.3C462.3 201.7 497.7 201.3 533.2 201.3C568.7 201.3 604.3 201.7 640 201C675.7 200.3 711.3 198.7 746.8 194.8C782.3 191 817.7 185 853.2 186.5C888.7 188 924.3 197 942.2 201.5L960 206L960 0L942.2 0C924.3 0 888.7 0 853.2 0C817.7 0 782.3 0 746.8 0C711.3 0 675.7 0 640 0C604.3 0 568.7 0 533.2 0C497.7 0 462.3 0 426.8 0C391.3 0 355.7 0 320 0C284.3 0 248.7 0 213.2 0C177.7 0 142.3 0 106.8 0C71.3 0 35.7 0 17.8 0L0 0Z"
    fill="#3a6995"></path>
  <path
    d="M0 156L17.8 150.3C35.7 144.7 71.3 133.3 106.8 131.8C142.3 130.3 177.7 138.7 213.2 147.3C248.7 156 284.3 165 320 166.8C355.7 168.7 391.3 163.3 426.8 157.5C462.3 151.7 497.7 145.3 533.2 139.7C568.7 134 604.3 129 640 127C675.7 125 711.3 126 746.8 129C782.3 132 817.7 137 853.2 140.2C888.7 143.3 924.3 144.7 942.2 145.3L960 146L960 0L942.2 0C924.3 0 888.7 0 853.2 0C817.7 0 782.3 0 746.8 0C711.3 0 675.7 0 640 0C604.3 0 568.7 0 533.2 0C497.7 0 462.3 0 426.8 0C391.3 0 355.7 0 320 0C284.3 0 248.7 0 213.2 0C177.7 0 142.3 0 106.8 0C71.3 0 35.7 0 17.8 0L0 0Z"
    fill="#2e5574"></path>
  <path
    d="M0 99L17.8 103.3C35.7 107.7 71.3 116.3 106.8 116.7C142.3 117 177.7 109 213.2 112C248.7 115 284.3 129 320 134.8C355.7 140.7 391.3 138.3 426.8 133.8C462.3 129.3 497.7 122.7 533.2 121.3C568.7 120 604.3 124 640 125.2C675.7 126.3 711.3 124.7 746.8 119.5C782.3 114.3 817.7 105.7 853.2 103.8C888.7 102 924.3 107 942.2 109.5L960 112L960 0L942.2 0C924.3 0 888.7 0 853.2 0C817.7 0 782.3 0 746.8 0C711.3 0 675.7 0 640 0C604.3 0 568.7 0 533.2 0C497.7 0 462.3 0 426.8 0C391.3 0 355.7 0 320 0C284.3 0 248.7 0 213.2 0C177.7 0 142.3 0 106.8 0C71.3 0 35.7 0 17.8 0L0 0Z"
    fill="#264154"></path>
  <path
    d="M0 76L17.8 79.5C35.7 83 71.3 90 106.8 95.2C142.3 100.3 177.7 103.7 213.2 100.3C248.7 97 284.3 87 320 83.2C355.7 79.3 391.3 81.7 426.8 86.5C462.3 91.3 497.7 98.7 533.2 99.2C568.7 99.7 604.3 93.3 640 92.2C675.7 91 711.3 95 746.8 98.2C782.3 101.3 817.7 103.7 853.2 104.3C888.7 105 924.3 104 942.2 103.5L960 103L960 0L942.2 0C924.3 0 888.7 0 853.2 0C817.7 0 782.3 0 746.8 0C711.3 0 675.7 0 640 0C604.3 0 568.7 0 533.2 0C497.7 0 462.3 0 426.8 0C391.3 0 355.7 0 320 0C284.3 0 248.7 0 213.2 0C177.7 0 142.3 0 106.8 0C71.3 0 35.7 0 17.8 0L0 0Z"
    fill="#1f2d37"></path>
  <path
    d="M0 48L17.8 50.7C35.7 53.3 71.3 58.7 106.8 62.3C142.3 66 177.7 68 213.2 65.3C248.7 62.7 284.3 55.3 320 54.8C355.7 54.3 391.3 60.7 426.8 62.2C462.3 63.7 497.7 60.3 533.2 59.8C568.7 59.3 604.3 61.7 640 64C675.7 66.3 711.3 68.7 746.8 69.7C782.3 70.7 817.7 70.3 853.2 69.8C888.7 69.3 924.3 68.7 942.2 68.3L960 68L960 0L942.2 0C924.3 0 888.7 0 853.2 0C817.7 0 782.3 0 746.8 0C711.3 0 675.7 0 640 0C604.3 0 568.7 0 533.2 0C497.7 0 462.3 0 426.8 0C391.3 0 355.7 0 320 0C284.3 0 248.7 0 213.2 0C177.7 0 142.3 0 106.8 0C71.3 0 35.7 0 17.8 0L0 0Z"
    fill="#171a1c"></path>
</svg>
