<svg height="540" id="visual" version="1.1" viewBox="0 0 960 540" width="960"
     xmlns="http://www.w3.org/2000/svg">
  <path
    d="M0 454L17.8 444.7C35.7 435.3 71.3 416.7 106.8 406C142.3 395.3 177.7 392.7 213.2 394C248.7 395.3 284.3 400.7 320 406.8C355.7 413 391.3 420 426.8 419.7C462.3 419.3 497.7 411.7 533.2 411C568.7 410.3 604.3 416.7 640 424.7C675.7 432.7 711.3 442.3 746.8 449.5C782.3 456.7 817.7 461.3 853.2 453.2C888.7 445 924.3 424 942.2 413.5L960 403L960 0L942.2 0C924.3 0 888.7 0 853.2 0C817.7 0 782.3 0 746.8 0C711.3 0 675.7 0 640 0C604.3 0 568.7 0 533.2 0C497.7 0 462.3 0 426.8 0C391.3 0 355.7 0 320 0C284.3 0 248.7 0 213.2 0C177.7 0 142.3 0 106.8 0C71.3 0 35.7 0 17.8 0L0 0Z"
    fill="#ff79eb"></path>
  <path
    d="M0 431L17.8 422.5C35.7 414 71.3 397 106.8 391.8C142.3 386.7 177.7 393.3 213.2 393.3C248.7 393.3 284.3 386.7 320 382.2C355.7 377.7 391.3 375.3 426.8 376.3C462.3 377.3 497.7 381.7 533.2 384.3C568.7 387 604.3 388 640 390.5C675.7 393 711.3 397 746.8 396.5C782.3 396 817.7 391 853.2 388C888.7 385 924.3 384 942.2 383.5L960 383L960 0L942.2 0C924.3 0 888.7 0 853.2 0C817.7 0 782.3 0 746.8 0C711.3 0 675.7 0 640 0C604.3 0 568.7 0 533.2 0C497.7 0 462.3 0 426.8 0C391.3 0 355.7 0 320 0C284.3 0 248.7 0 213.2 0C177.7 0 142.3 0 106.8 0C71.3 0 35.7 0 17.8 0L0 0Z"
    fill="#da77e3"></path>
  <path
    d="M0 344L17.8 345.7C35.7 347.3 71.3 350.7 106.8 357.5C142.3 364.3 177.7 374.7 213.2 370.7C248.7 366.7 284.3 348.3 320 337.2C355.7 326 391.3 322 426.8 329.8C462.3 337.7 497.7 357.3 533.2 364.3C568.7 371.3 604.3 365.7 640 362.7C675.7 359.7 711.3 359.3 746.8 362.5C782.3 365.7 817.7 372.3 853.2 374.3C888.7 376.3 924.3 373.7 942.2 372.3L960 371L960 0L942.2 0C924.3 0 888.7 0 853.2 0C817.7 0 782.3 0 746.8 0C711.3 0 675.7 0 640 0C604.3 0 568.7 0 533.2 0C497.7 0 462.3 0 426.8 0C391.3 0 355.7 0 320 0C284.3 0 248.7 0 213.2 0C177.7 0 142.3 0 106.8 0C71.3 0 35.7 0 17.8 0L0 0Z"
    fill="#b573d8"></path>
  <path
    d="M0 355L17.8 347.3C35.7 339.7 71.3 324.3 106.8 316.3C142.3 308.3 177.7 307.7 213.2 309.8C248.7 312 284.3 317 320 317.7C355.7 318.3 391.3 314.7 426.8 308.3C462.3 302 497.7 293 533.2 290C568.7 287 604.3 290 640 301C675.7 312 711.3 331 746.8 332.2C782.3 333.3 817.7 316.7 853.2 317.3C888.7 318 924.3 336 942.2 345L960 354L960 0L942.2 0C924.3 0 888.7 0 853.2 0C817.7 0 782.3 0 746.8 0C711.3 0 675.7 0 640 0C604.3 0 568.7 0 533.2 0C497.7 0 462.3 0 426.8 0C391.3 0 355.7 0 320 0C284.3 0 248.7 0 213.2 0C177.7 0 142.3 0 106.8 0C71.3 0 35.7 0 17.8 0L0 0Z"
    fill="#936ec9"></path>
  <path
    d="M0 272L17.8 275.8C35.7 279.7 71.3 287.3 106.8 292.5C142.3 297.7 177.7 300.3 213.2 300.3C248.7 300.3 284.3 297.7 320 295.3C355.7 293 391.3 291 426.8 288.8C462.3 286.7 497.7 284.3 533.2 285.8C568.7 287.3 604.3 292.7 640 290C675.7 287.3 711.3 276.7 746.8 277.5C782.3 278.3 817.7 290.7 853.2 291.2C888.7 291.7 924.3 280.3 942.2 274.7L960 269L960 0L942.2 0C924.3 0 888.7 0 853.2 0C817.7 0 782.3 0 746.8 0C711.3 0 675.7 0 640 0C604.3 0 568.7 0 533.2 0C497.7 0 462.3 0 426.8 0C391.3 0 355.7 0 320 0C284.3 0 248.7 0 213.2 0C177.7 0 142.3 0 106.8 0C71.3 0 35.7 0 17.8 0L0 0Z"
    fill="#7367b7"></path>
  <path
    d="M0 266L17.8 268.8C35.7 271.7 71.3 277.3 106.8 274.3C142.3 271.3 177.7 259.7 213.2 254.8C248.7 250 284.3 252 320 251.7C355.7 251.3 391.3 248.7 426.8 243C462.3 237.3 497.7 228.7 533.2 224C568.7 219.3 604.3 218.7 640 228C675.7 237.3 711.3 256.7 746.8 257.3C782.3 258 817.7 240 853.2 232.5C888.7 225 924.3 228 942.2 229.5L960 231L960 0L942.2 0C924.3 0 888.7 0 853.2 0C817.7 0 782.3 0 746.8 0C711.3 0 675.7 0 640 0C604.3 0 568.7 0 533.2 0C497.7 0 462.3 0 426.8 0C391.3 0 355.7 0 320 0C284.3 0 248.7 0 213.2 0C177.7 0 142.3 0 106.8 0C71.3 0 35.7 0 17.8 0L0 0Z"
    fill="#575fa3"></path>
  <path
    d="M0 236L17.8 232.3C35.7 228.7 71.3 221.3 106.8 221.7C142.3 222 177.7 230 213.2 229.3C248.7 228.7 284.3 219.3 320 211.2C355.7 203 391.3 196 426.8 192.3C462.3 188.7 497.7 188.3 533.2 194.5C568.7 200.7 604.3 213.3 640 214C675.7 214.7 711.3 203.3 746.8 204.2C782.3 205 817.7 218 853.2 224C888.7 230 924.3 229 942.2 228.5L960 228L960 0L942.2 0C924.3 0 888.7 0 853.2 0C817.7 0 782.3 0 746.8 0C711.3 0 675.7 0 640 0C604.3 0 568.7 0 533.2 0C497.7 0 462.3 0 426.8 0C391.3 0 355.7 0 320 0C284.3 0 248.7 0 213.2 0C177.7 0 142.3 0 106.8 0C71.3 0 35.7 0 17.8 0L0 0Z"
    fill="#3f558d"></path>
  <path
    d="M0 156L17.8 157C35.7 158 71.3 160 106.8 161.8C142.3 163.7 177.7 165.3 213.2 167.8C248.7 170.3 284.3 173.7 320 179.7C355.7 185.7 391.3 194.3 426.8 197.8C462.3 201.3 497.7 199.7 533.2 200.3C568.7 201 604.3 204 640 196.5C675.7 189 711.3 171 746.8 169.5C782.3 168 817.7 183 853.2 189.2C888.7 195.3 924.3 192.7 942.2 191.3L960 190L960 0L942.2 0C924.3 0 888.7 0 853.2 0C817.7 0 782.3 0 746.8 0C711.3 0 675.7 0 640 0C604.3 0 568.7 0 533.2 0C497.7 0 462.3 0 426.8 0C391.3 0 355.7 0 320 0C284.3 0 248.7 0 213.2 0C177.7 0 142.3 0 106.8 0C71.3 0 35.7 0 17.8 0L0 0Z"
    fill="#2d4a75"></path>
  <path
    d="M0 150L17.8 147.2C35.7 144.3 71.3 138.7 106.8 139C142.3 139.3 177.7 145.7 213.2 147C248.7 148.3 284.3 144.7 320 141C355.7 137.3 391.3 133.7 426.8 134.8C462.3 136 497.7 142 533.2 142.3C568.7 142.7 604.3 137.3 640 139C675.7 140.7 711.3 149.3 746.8 151.7C782.3 154 817.7 150 853.2 147.3C888.7 144.7 924.3 143.3 942.2 142.7L960 142L960 0L942.2 0C924.3 0 888.7 0 853.2 0C817.7 0 782.3 0 746.8 0C711.3 0 675.7 0 640 0C604.3 0 568.7 0 533.2 0C497.7 0 462.3 0 426.8 0C391.3 0 355.7 0 320 0C284.3 0 248.7 0 213.2 0C177.7 0 142.3 0 106.8 0C71.3 0 35.7 0 17.8 0L0 0Z"
    fill="#213f5e"></path>
  <path
    d="M0 120L17.8 120.2C35.7 120.3 71.3 120.7 106.8 118.5C142.3 116.3 177.7 111.7 213.2 111.3C248.7 111 284.3 115 320 111C355.7 107 391.3 95 426.8 96.3C462.3 97.7 497.7 112.3 533.2 113.7C568.7 115 604.3 103 640 100.2C675.7 97.3 711.3 103.7 746.8 104.5C782.3 105.3 817.7 100.7 853.2 100.7C888.7 100.7 924.3 105.3 942.2 107.7L960 110L960 0L942.2 0C924.3 0 888.7 0 853.2 0C817.7 0 782.3 0 746.8 0C711.3 0 675.7 0 640 0C604.3 0 568.7 0 533.2 0C497.7 0 462.3 0 426.8 0C391.3 0 355.7 0 320 0C284.3 0 248.7 0 213.2 0C177.7 0 142.3 0 106.8 0C71.3 0 35.7 0 17.8 0L0 0Z"
    fill="#1c3346"></path>
  <path
    d="M0 58L17.8 62.2C35.7 66.3 71.3 74.7 106.8 78.5C142.3 82.3 177.7 81.7 213.2 78.8C248.7 76 284.3 71 320 70.5C355.7 70 391.3 74 426.8 71.3C462.3 68.7 497.7 59.3 533.2 54.8C568.7 50.3 604.3 50.7 640 52.2C675.7 53.7 711.3 56.3 746.8 57C782.3 57.7 817.7 56.3 853.2 56.3C888.7 56.3 924.3 57.7 942.2 58.3L960 59L960 0L942.2 0C924.3 0 888.7 0 853.2 0C817.7 0 782.3 0 746.8 0C711.3 0 675.7 0 640 0C604.3 0 568.7 0 533.2 0C497.7 0 462.3 0 426.8 0C391.3 0 355.7 0 320 0C284.3 0 248.7 0 213.2 0C177.7 0 142.3 0 106.8 0C71.3 0 35.7 0 17.8 0L0 0Z"
    fill="#192630"></path>
  <path
    d="M0 60L17.8 57C35.7 54 71.3 48 106.8 43.8C142.3 39.7 177.7 37.3 213.2 35.8C248.7 34.3 284.3 33.7 320 37.2C355.7 40.7 391.3 48.3 426.8 45.3C462.3 42.3 497.7 28.7 533.2 28.2C568.7 27.7 604.3 40.3 640 47.8C675.7 55.3 711.3 57.7 746.8 57.7C782.3 57.7 817.7 55.3 853.2 52.3C888.7 49.3 924.3 45.7 942.2 43.8L960 42L960 0L942.2 0C924.3 0 888.7 0 853.2 0C817.7 0 782.3 0 746.8 0C711.3 0 675.7 0 640 0C604.3 0 568.7 0 533.2 0C497.7 0 462.3 0 426.8 0C391.3 0 355.7 0 320 0C284.3 0 248.7 0 213.2 0C177.7 0 142.3 0 106.8 0C71.3 0 35.7 0 17.8 0L0 0Z"
    fill="#171a1c"></path>
</svg>
